# xmcd
#
# Track frame offsets:
#	150
#	22852
#	44354
#	69716
#	95983
#	124195
#	150927
#	167464
#	188531
#	209503
#	228605
#	246657
#	263724
#	282856
#	301268
#	320250
#
# Disc length: 4519 seconds
#
# Revision: 0
# Processed by: cddbd v1.5.2PL0 Copyright (c) Steve Scherf et al.
# Submitted via: EasyCDDAExtractor 2010.4.0.0
#
DISCID=db11a510
DTITLE=Various Artist - 2010 Steppers Connection Vol. 8
DYEAR=2010
DGENRE=R&B
TTITLE0=Brian Culbertson w/Brian Mcknight - Out On The Floor
TTITLE1=Brian Culbertson w/Faith Evans - Don't You Konw Me By Now
TTITLE2=Shapro - Lake Shore Drive
TTITLE3=D.J. Calvin - I Just Came To Love You
TTITLE4=D.J. Calvin - Ooh Dah Dah
TTITLE5=KEM - Human Touch
TTITLE6=KEM - When I'm Loving You
TTITLE7=Sinclair - Stay With me
TTITLE8=Chris Brown w/TYGA - Deuces
TTITLE9=Fantasia - Teach Me
TTITLE10=Lamont Dozier - Why Can't We Be Lovers
TTITLE11=Soccerro - Get To Know You
TTITLE12=Mikki Bleu - U Should Be With Me
TTITLE13=Nicki Minaj - Your Love
TTITLE14=Foreign Exchange - Take Off The Blues
TTITLE15=Macy Grey w/Bobby Brown - Real Love
EXTD=
EXTT0=
EXTT1=
EXTT2=
EXTT3=
EXTT4=
EXTT5=
EXTT6=
EXTT7=
EXTT8=
EXTT9=
EXTT10=
EXTT11=
EXTT12=
EXTT13=
EXTT14=
EXTT15=
PLAYORDER=
